#!OML:ASF F:\VICON\USERDATA\INSTALL\rory3\rory3.ASF
:FULLY-SPECIFIED
:DEGREES
1669
root -0.123699 15.6455 -4.98084 -23.206 3.16415 -715.778
lowerback 21.6315 0.283191 -3.00151
upperback 9.04994 -0.103107 2.41928
thorax -2.20382 -0.160924 4.32733
lowerneck -19.8665 -2.73945 -11.8629
upperneck 24.2207 -0.784011 2.89799
head 11.2655 -1.0912 2.92029
rclavicle 6.36111e-015 -1.59028e-015
rhumerus -35.0672 14.4446 -86.1555
rradius 102.02
rwrist 23.6681
rhand -31.413 16.3344
rfingers 7.12502
rthumb -4.68198 -13.5939
lclavicle 6.36111e-015 -1.59028e-015
lhumerus -32.4468 -23.8103 95.714
lradius 86.9579
lwrist -24.4384
lhand -35.929 13.2367
lfingers 7.12502
lthumb -9.04125 43.0229
rfemur -81.5819 -20.3367 28.7554
rtibia 136.279
rfoot 11.0079 -12.2645
rtoes 19.3988
lfemur -80.3389 12.0724 -34.415
ltibia 128.616
lfoot 16.7644 -7.08613
ltoes -7.25255
1670
root -0.130407 15.6405 -4.97655 -23.1745 3.17509 -715.782
lowerback 21.5918 0.307816 -3.03996
upperback 9.09684 -0.0785946 2.39709
thorax -2.13508 -0.15136 4.31894
lowerneck -19.9738 -2.78292 -12.0264
upperneck 24.3152 -0.840827 3.13283
head 11.3278 -1.10514 3.02795
rclavicle 8.84592e-015 -7.95139e-015
rhumerus -35.1859 14.4726 -86.3504
rradius 102.077
rwrist 23.4398
rhand -31.3627 16.8746
rfingers 7.12502
rthumb -4.6334 -13.0547
lclavicle 8.84592e-015 -7.95139e-015
lhumerus -32.4369 -23.9333 95.734
lradius 87.0627
lwrist -24.3277
lhand -35.8543 13.4439
lfingers 7.12502
lthumb -8.96924 43.2332
rfemur -81.6156 -20.0739 28.7792
rtibia 136.312
rfoot 10.8829 -12.2066
rtoes 19.6201
lfemur -80.5219 12.0082 -34.5543
ltibia 128.759
lfoot 16.6115 -6.86428
ltoes -7.57732
1671
root -0.138438 15.638 -4.97257 -23.1527 3.25133 -715.658
lowerback 21.5622 0.355521 -3.22248
upperback 9.16468 -0.0536992 2.33727
thorax -2.04726 -0.145099 4.35268
lowerneck -19.982 -2.83452 -11.9348
upperneck 24.196 -0.917978 3.03992
head 11.2901 -1.13909 2.96398
rclavicle -9.93923e-016 -7.95139e-015
rhumerus -35.2226 14.4997 -86.5249
rradius 102.103
rwrist 23.4718
rhand -31.5479 16.8257
rfingers 7.12502
rthumb -4.81219 -13.0997
lclavicle -9.93923e-016 -7.95139e-015
lhumerus -32.4163 -24.103 95.7648
lradius 87.1792
lwrist -24.0437
lhand -35.8467 13.6919
lfingers 7.12502
lthumb -8.96185 43.4815
rfemur -81.635 -19.9275 28.6484
rtibia 136.373
rfoot 10.8694 -12.1361
rtoes 19.466
lfemur -80.5208 11.8814 -34.867
ltibia 128.822
lfoot 16.3007 -6.53699
ltoes -8.6684
1672
root -0.147344 15.638 -4.97023 -23.1378 3.3855 -715.456
lowerback 21.6345 0.41384 -3.47352
upperback 9.18491 -0.0319262 2.24373
thorax -2.06116 -0.138309 4.39177
lowerneck -20.0816 -2.92403 -11.8788
upperneck 24.2141 -1.03062 2.97626
head 11.3257 -1.19328 2.91374
rclavicle -7.15625e-015 0
rhumerus -35.2615 14.6184 -86.69
rradius 102.193
rwrist 23.8725
rhand -31.1448 15.6159
rfingers 7.12502
rthumb -4.42296 -14.3179
lclavicle -7.15625e-015 0
lhumerus -32.4499 -24.2125 95.7617
lradius 87.3024
lwrist -24.0123
lhand -35.7223 13.6405
lfingers 7.12502
lthumb -8.84182 43.4352
rfemur -81.6242 -19.8979 28.4067
rtibia 136.434
rfoot 11.1215 -12.1656
rtoes 19.7487
lfemur -80.4156 11.6642 -35.2993
ltibia 128.862
lfoot 15.9683 -6.27529
ltoes -9.72827
1673
root -0.155447 15.6397 -4.97039 -23.1255 3.453 -715.317
lowerback 21.7323 0.481315 -3.63624
upperback 9.19124 0.0190632 2.17974
thorax -2.10679 -0.114388 4.40565
lowerneck -20.0118 -3.04401 -11.8356
upperneck 24.0402 -1.20141 2.88754
head 11.2608 -1.27205 2.84397
rclavicle 5.46658e-015 -1.59028e-014
rhumerus -35.3085 14.8245 -86.8129
rradius 102.151
rwrist 23.9864
rhand -30.5472 15.0077
rfingers 7.12502
rthumb -3.84592 -14.9373
lclavicle 5.46658e-015 -1.59028e-014
lhumerus -32.4373 -24.3403 95.7777
lradius 87.3886
lwrist -24.0574
lhand -35.7961 13.518
lfingers 7.12502
lthumb -8.91304 43.3097
rfemur -81.6183 -19.7705 28.2803
rtibia 136.434
rfoot 11.5694 -12.2489
rtoes 19.5037
lfemur -80.3918 11.5432 -35.6165
ltibia 128.887
lfoot 15.7961 -5.74918
ltoes -8.18872
1674
root -0.164894 15.6387 -4.9705 -23.0571 3.38971 -715.3
lowerback 21.7379 0.558299 -3.67333
upperback 9.22157 0.111445 2.16421
thorax -2.08576 -0.0698639 4.38882
lowerneck -19.7345 -3.1627 -11.6583
upperneck 23.5284 -1.39042 2.59383
head 11.0287 -1.3621 2.66941
rclavicle 9.93923e-016 -3.18055e-014
rhumerus -35.3344 14.9841 -86.93
rradius 102.021
rwrist 23.8336
rhand -30.3874 15.1027
rfingers 7.12502
rthumb -3.69155 -14.8451
lclavicle 9.93923e-016 -3.18055e-014
lhumerus -32.3707 -24.4773 95.8001
lradius 87.4776
lwrist -23.9451
lhand -36.1495 13.4919
lfingers 7.12502
lthumb -9.25402 43.2688
rfemur -81.691 -19.3579 28.3786
rtibia 136.409
rfoot 12.0681 -12.4834
rtoes 19.3404
lfemur -80.5323 11.6085 -35.7578
ltibia 128.963
lfoot 15.6865 -5.13552
ltoes -5.14809
1675
root -0.175146 15.6336 -4.96962 -22.9335 3.27446 -715.371
lowerback 21.7085 0.596513 -3.64787
upperback 9.24635 0.167621 2.18187
thorax -2.05009 -0.0430031 4.37994
lowerneck -19.5404 -3.23549 -11.6359
upperneck 23.1243 -1.50328 2.48825
head 10.8499 -1.41162 2.60477
rclavicle -2.42517e-014 1.27222e-014
rhumerus -35.2583 15.2378 -87.0779
rradius 101.876
rwrist 23.8429
rhand -30.5838 14.8838
rfingers 7.12502
rthumb -3.88119 -15.0606
lclavicle -2.42517e-014 1.27222e-014
lhumerus -32.2629 -24.4378 95.8
lradius 87.5481
lwrist -23.9504
lhand -36.2354 13.2291
lfingers 7.12502
lthumb -9.33697 43.0023
rfemur -81.8078 -18.8034 28.6098
rtibia 136.385
rfoot 12.5639 -12.7785
rtoes 19.7182
lfemur -80.7669 11.7193 -35.8318
ltibia 129.124
lfoot 15.5543 -4.87594
ltoes -4.14099
1676
root -0.18423 15.6302 -4.97039 -22.843 3.18773 -715.488
lowerback 21.7683 0.588252 -3.57087
upperback 9.24551 0.170598 2.19906
thorax -2.08186 -0.039424 4.35421
lowerneck -19.5147 -3.29152 -11.7646
upperneck 22.9912 -1.56915 2.57388
head 10.8032 -1.43804 2.64552
rclavicle -1.19271e-015 1.11319e-014
rhumerus -35.1958 15.5485 -87.2498
rradius 101.685
rwrist 23.7001
rhand -30.9863 15.2724
rfingers 7.12502
rthumb -4.26991 -14.6646
lclavicle -1.19271e-015 1.11319e-014
lhumerus -32.1997 -24.3317 95.7823
lradius 87.6299
lwrist -24.0943
lhand -36.0332 12.8898
lfingers 7.12502
lthumb -9.1418 42.6717
rfemur -81.8327 -18.3304 28.8496
rtibia 136.323
rfoot 12.9181 -13.0936
rtoes 20.2135
lfemur -80.9655 11.7784 -35.8951
ltibia 129.254
lfoot 15.5074 -5.07502
ltoes -5.35728
1677
root -0.190733 15.63 -4.97188 -22.7961 3.08199 -715.608
lowerback 21.8559 0.573579 -3.42435
upperback 9.27151 0.176807 2.17978
thorax -2.09934 -0.0325955 4.2485
lowerneck -19.6516 -3.35429 -11.6916
upperneck 22.9434 -1.63967 2.49079
head 10.8159 -1.47202 2.59114
rclavicle 1.90833e-014 -3.02153e-014
rhumerus -35.1226 15.7683 -87.4455
rradius 101.548
rwrist 23.7429
rhand -31.1097 15.8912
rfingers 7.12502
rthumb -4.38905 -14.0433
lclavicle 1.90833e-014 -3.02153e-014
lhumerus -32.1575 -24.2403 95.7267
lradius 87.7364
lwrist -24.2714
lhand -35.8158 12.9129
lfingers 7.12502
lthumb -8.9321 42.7038
rfemur -81.8059 -17.8564 29.0551
rtibia 136.245
rfoot 13.2004 -13.3897
rtoes 20.389
lfemur -81.1105 11.8541 -35.9193
ltibia 129.299
lfoot 15.5627 -5.47507
ltoes -6.79068
1678
root -0.197148 15.6314 -4.97307 -22.7263 3.0715 -715.595
lowerback 21.8515 0.569289 -3.41132
upperback 9.36571 0.171055 2.10758
thorax -1.99444 -0.0376601 4.1639
lowerneck -19.9017 -3.42501 -11.6241
upperneck 22.8937 -1.72122 2.47246
head 10.85 -1.50296 2.55914
rclavicle -1.41137e-014 1.90833e-014
rhumerus -34.9104 15.935 -87.6253
rradius 101.406
rwrist 24.0136
rhand -31.2532 15.9773
rfingers 7.12502
rthumb -4.52761 -13.9543
lclavicle -1.41137e-014 1.90833e-014
lhumerus -32.0301 -24.1804 95.6082
lradius 87.9024
lwrist -24.3163
lhand -35.6711 13.1565
lfingers 7.12502
lthumb -8.79241 42.9534
rfemur -81.8668 -17.5194 29.0907
rtibia 136.211
rfoot 13.404 -13.5707
rtoes 20.3169
lfemur -81.1095 11.7789 -36.0461
ltibia 129.291
lfoot 15.4853 -5.73287
ltoes -7.11564
1679
root -0.206013 15.6332 -4.97117 -22.6324 3.16067 -715.431
lowerback 21.8046 0.581927 -3.61788
upperback 9.39102 0.144902 2.02284
thorax -1.93927 -0.0558993 4.19643
lowerneck -19.8376 -3.45361 -11.9036
upperneck 22.8551 -1.78345 2.85559
head 10.8338 -1.50719 2.73586
rclavicle -5.06901e-015 -2.46493e-014
rhumerus -34.8604 16.1487 -87.8097
rradius 101.228
rwrist 24.0524
rhand -31.2824 15.9185
rfingers 7.12502
rthumb -4.55585 -14.0125
lclavicle -5.06901e-015 -2.46493e-014
lhumerus -32.1008 -24.0405 95.5979
lradius 88.0571
lwrist -24.4019
lhand -35.8188 13.2681
lfingers 7.12502
lthumb -8.93498 43.0589
rfemur -81.9662 -17.3477 28.9386
rtibia 136.231
rfoot 13.5703 -13.6462
rtoes 20.4726
lfemur -81.0415 11.5693 -36.379
ltibia 129.249
lfoot 15.2837 -5.75045
ltoes -6.40549
1680
root -0.213837 15.6324 -4.96659 -22.5586 3.16421 -715.355
lowerback 21.8427 0.598363 -3.73355
upperback 9.33232 0.140063 1.98015
thorax -2.02073 -0.0575379 4.21847
lowerneck -19.5616 -3.45848 -12.1579
upperneck 22.7719 -1.832 3.16549
head 10.7598 -1.51183 2.88387
rclavicle -5.36719e-015 2.38542e-015
rhumerus -34.9788 16.3695 -88.0001
rradius 101.128
rwrist 24.4008
rhand -31.0712 15.4722
rfingers 7.12502
rthumb -4.35192 -14.4631
lclavicle -5.36719e-015 2.38542e-015
lhumerus -32.3207 -23.8554 95.6654
lradius 88.1327
lwrist -24.7826
lhand -36.097 13.5845
lfingers 7.12502
lthumb -9.20344 43.3636
rfemur -82.0096 -17.0099 28.8713
rtibia 136.251
rfoot 13.6316 -13.7952
rtoes 20.6202
lfemur -80.9722 11.5216 -36.6455
ltibia 129.264
lfoot 14.9839 -5.97022
ltoes -6.39829
1681
root -0.221686 15.6326 -4.9633 -22.475 3.21105 -715.253
lowerback 21.8471 0.618984 -3.88946
upperback 9.35416 0.133533 1.91648
thorax -1.99705 -0.0644022 4.24066
lowerneck -19.5023 -3.50218 -11.8812
upperneck 22.4976 -1.91133 2.86272
head 10.6483 -1.55252 2.71223
rclavicle -9.83984e-015 6.36111e-015
rhumerus -34.9135 16.5527 -88.1436
rradius 101.005
rwrist 24.914
rhand -30.9105 15.1731
rfingers 7.12502
rthumb -4.19667 -14.7653
lclavicle -9.83984e-015 6.36111e-015
lhumerus -32.3635 -23.6793 95.6573
lradius 88.199
lwrist -25.2245
lhand -36.1607 13.7607
lfingers 7.12502
lthumb -9.2649 43.5372
rfemur -82.0541 -16.7119 28.7352
rtibia 136.263
rfoot 13.6151 -13.8063
rtoes 20.6933
lfemur -80.8346 11.4272 -36.8568
ltibia 129.291
lfoot 14.6209 -6.23353
ltoes -7.21396
1682
root -0.230057 15.6373 -4.96455 -22.384 3.29015 -715.129
lowerback 21.8534 0.646036 -4.06093
upperback 9.39866 0.132687 1.85179
thorax -1.94993 -0.0697521 4.26927
lowerneck -19.4806 -3.57184 -11.6918
upperneck 22.1965 -2.01715 2.64575
head 10.538 -1.60153 2.58275
rclavicle 1.26228e-014 -3.97569e-015
rhumerus -34.7771 16.7339 -88.2499
rradius 100.88
rwrist 25.0797
rhand -30.9021 15.2131
rfingers 7.12502
rthumb -4.18865 -14.7255
lclavicle 1.26228e-014 -3.97569e-015
lhumerus -32.3136 -23.6208 95.6739
lradius 88.253
lwrist -25.3553
lhand -36.1021 13.7652
lfingers 7.12502
lthumb -9.20834 43.5441
rfemur -82.1011 -16.5018 28.5728
rtibia 136.231
rfoot 13.6561 -13.7028
rtoes 20.974
lfemur -80.7939 11.2717 -37.0194
ltibia 129.233
lfoot 14.6777 -6.39898
ltoes -6.59033
1683
root -0.237229 15.6419 -4.96814 -22.3293 3.2155 -715.193
lowerback 21.9999 0.681923 -4.02081
upperback 9.36871 0.181889 1.85712
thorax -2.06105 -0.0410644 4.24214
lowerneck -19.1607 -3.64991 -11.9145
upperneck 21.9446 -2.17192 2.9088
head 10.4038 -1.65292 2.69041
rclavicle 4.37326e-015 -1.35174e-014
rhumerus -34.7311 16.9353 -88.3489
rradius 100.692
rwrist 25.0517
rhand -31.3971 15.5017
rfingers 7.12502
rthumb -4.66659 -14.4269
lclavicle 4.37326e-015 -1.35174e-014
lhumerus -32.3203 -23.6839 95.8108
lradius 88.2123
lwrist -25.1462
lhand -36.0238 13.7211
lfingers 7.12502
lthumb -9.13273 43.5033
rfemur -82.0606 -16.059 28.6544
rtibia 136.134
rfoot 13.8248 -13.7875
rtoes 21.5897
lfemur -80.8128 11.3137 -36.9127
ltibia 129.181
lfoot 15.1958 -6.71531
ltoes -3.73295
